G75*
%MOIN*%
%OFA0B0*%
%FSLAX26Y26*%
%IPPOS*%
%LPD*%
%AMOC8*
5,1,8,0,0,1.08239X$1,22.5*
%
%ADD10C,0.060000*%
%ADD11OC8,0.060000*%
%ADD12OC8,0.071000*%
%ADD13C,0.071000*%
%ADD14C,0.075717*%
D10*
X00961811Y02018094D02*
X00961811Y02070094D01*
X01061811Y02070094D02*
X01061811Y02018094D01*
X01161811Y02018094D02*
X01161811Y02070094D01*
X01261811Y02070094D02*
X01261811Y02018094D01*
X01361811Y02018094D02*
X01361811Y02070094D01*
X01461811Y02070094D02*
X01461811Y02018094D01*
X01561811Y02018094D02*
X01561811Y02070094D01*
X01661811Y02070094D02*
X01661811Y02018094D01*
X01761811Y02018094D02*
X01761811Y02070094D01*
X01861811Y02070094D02*
X01861811Y02018094D01*
X01961811Y02018094D02*
X01961811Y02070094D01*
X02061811Y02070094D02*
X02061811Y02018094D01*
X02161811Y02018094D02*
X02161811Y02070094D01*
X02261811Y02070094D02*
X02261811Y02018094D01*
X02361811Y02018094D02*
X02361811Y02070094D01*
X02461811Y02070094D02*
X02461811Y02018094D01*
X02561811Y02018094D02*
X02561811Y02070094D01*
X02661811Y02070094D02*
X02661811Y02018094D01*
X02761811Y02018094D02*
X02761811Y02070094D01*
X02861811Y02070094D02*
X02861811Y02018094D01*
X02861811Y02618094D02*
X02861811Y02670094D01*
X02761811Y02670094D02*
X02761811Y02618094D01*
X02661811Y02618094D02*
X02661811Y02670094D01*
X02561811Y02670094D02*
X02561811Y02618094D01*
X02461811Y02618094D02*
X02461811Y02670094D01*
X02361811Y02670094D02*
X02361811Y02618094D01*
X02261811Y02618094D02*
X02261811Y02670094D01*
X02161811Y02670094D02*
X02161811Y02618094D01*
X02061811Y02618094D02*
X02061811Y02670094D01*
X01961811Y02670094D02*
X01961811Y02618094D01*
X01861811Y02618094D02*
X01861811Y02670094D01*
X01761811Y02670094D02*
X01761811Y02618094D01*
X01661811Y02618094D02*
X01661811Y02670094D01*
X01561811Y02670094D02*
X01561811Y02618094D01*
X01461811Y02618094D02*
X01461811Y02670094D01*
X01361811Y02670094D02*
X01361811Y02618094D01*
X01261811Y02618094D02*
X01261811Y02670094D01*
X01161811Y02670094D02*
X01161811Y02618094D01*
X01061811Y02618094D02*
X01061811Y02670094D01*
X00961811Y02670094D02*
X00961811Y02618094D01*
D11*
X00824409Y02464567D03*
X00624409Y02464567D03*
X00574409Y02251969D03*
X00874409Y02251969D03*
X00806299Y02818898D03*
X01206299Y02818898D03*
D12*
X01318898Y02872835D03*
D13*
X01318898Y02772835D03*
D14*
X00874016Y02043307D03*
X00574803Y02043307D03*
X02952756Y02641732D03*
X03196850Y02641732D03*
M02*
