G75*
%MOIN*%
%OFA0B0*%
%FSLAX26Y26*%
%IPPOS*%
%LPD*%
%AMOC8*
5,1,8,0,0,1.08239X$1,22.5*
%
%ADD10C,0.000315*%
D10*
X00673228Y00708661D02*
X00673228Y01811024D01*
X00590551Y01811024D01*
X00588648Y01811047D01*
X00586747Y01811116D01*
X00584847Y01811231D01*
X00582951Y01811392D01*
X00581060Y01811598D01*
X00579174Y01811850D01*
X00577295Y01812148D01*
X00575423Y01812491D01*
X00573560Y01812879D01*
X00571707Y01813312D01*
X00569865Y01813790D01*
X00568036Y01814312D01*
X00566219Y01814878D01*
X00564417Y01815488D01*
X00562629Y01816141D01*
X00560859Y01816837D01*
X00559105Y01817576D01*
X00557370Y01818357D01*
X00555654Y01819179D01*
X00553959Y01820043D01*
X00552285Y01820948D01*
X00550633Y01821893D01*
X00549005Y01822877D01*
X00547400Y01823900D01*
X00545822Y01824962D01*
X00544269Y01826062D01*
X00542743Y01827199D01*
X00541245Y01828372D01*
X00539776Y01829582D01*
X00538337Y01830826D01*
X00536928Y01832105D01*
X00535550Y01833418D01*
X00534205Y01834763D01*
X00532892Y01836141D01*
X00531613Y01837550D01*
X00530369Y01838989D01*
X00529159Y01840458D01*
X00527986Y01841956D01*
X00526849Y01843482D01*
X00525749Y01845035D01*
X00524687Y01846613D01*
X00523664Y01848218D01*
X00522680Y01849846D01*
X00521735Y01851498D01*
X00520830Y01853172D01*
X00519966Y01854867D01*
X00519144Y01856583D01*
X00518363Y01858318D01*
X00517624Y01860072D01*
X00516928Y01861842D01*
X00516275Y01863630D01*
X00515665Y01865432D01*
X00515099Y01867249D01*
X00514577Y01869078D01*
X00514099Y01870920D01*
X00513666Y01872773D01*
X00513278Y01874636D01*
X00512935Y01876508D01*
X00512637Y01878387D01*
X00512385Y01880273D01*
X00512179Y01882164D01*
X00512018Y01884060D01*
X00511903Y01885960D01*
X00511834Y01887861D01*
X00511811Y01889764D01*
X00511811Y02913386D01*
X00511834Y02915289D01*
X00511903Y02917190D01*
X00512018Y02919090D01*
X00512179Y02920986D01*
X00512385Y02922877D01*
X00512637Y02924763D01*
X00512935Y02926642D01*
X00513278Y02928514D01*
X00513666Y02930377D01*
X00514099Y02932230D01*
X00514577Y02934072D01*
X00515099Y02935901D01*
X00515665Y02937718D01*
X00516275Y02939520D01*
X00516928Y02941308D01*
X00517624Y02943078D01*
X00518363Y02944832D01*
X00519144Y02946567D01*
X00519966Y02948283D01*
X00520830Y02949978D01*
X00521735Y02951652D01*
X00522680Y02953304D01*
X00523664Y02954932D01*
X00524687Y02956537D01*
X00525749Y02958115D01*
X00526849Y02959668D01*
X00527986Y02961194D01*
X00529159Y02962692D01*
X00530369Y02964161D01*
X00531613Y02965600D01*
X00532892Y02967009D01*
X00534205Y02968387D01*
X00535550Y02969732D01*
X00536928Y02971045D01*
X00538337Y02972324D01*
X00539776Y02973568D01*
X00541245Y02974778D01*
X00542743Y02975951D01*
X00544269Y02977088D01*
X00545822Y02978188D01*
X00547400Y02979250D01*
X00549005Y02980273D01*
X00550633Y02981257D01*
X00552285Y02982202D01*
X00553959Y02983107D01*
X00555654Y02983971D01*
X00557370Y02984793D01*
X00559105Y02985574D01*
X00560859Y02986313D01*
X00562629Y02987009D01*
X00564417Y02987662D01*
X00566219Y02988272D01*
X00568036Y02988838D01*
X00569865Y02989360D01*
X00571707Y02989838D01*
X00573560Y02990271D01*
X00575423Y02990659D01*
X00577295Y02991002D01*
X00579174Y02991300D01*
X00581060Y02991552D01*
X00582951Y02991758D01*
X00584847Y02991919D01*
X00586747Y02992034D01*
X00588648Y02992103D01*
X00590551Y02992126D01*
X03228346Y02992126D01*
X03230249Y02992103D01*
X03232150Y02992034D01*
X03234050Y02991919D01*
X03235946Y02991758D01*
X03237837Y02991552D01*
X03239723Y02991300D01*
X03241602Y02991002D01*
X03243474Y02990659D01*
X03245337Y02990271D01*
X03247190Y02989838D01*
X03249032Y02989360D01*
X03250861Y02988838D01*
X03252678Y02988272D01*
X03254480Y02987662D01*
X03256268Y02987009D01*
X03258038Y02986313D01*
X03259792Y02985574D01*
X03261527Y02984793D01*
X03263243Y02983971D01*
X03264938Y02983107D01*
X03266612Y02982202D01*
X03268264Y02981257D01*
X03269892Y02980273D01*
X03271497Y02979250D01*
X03273075Y02978188D01*
X03274628Y02977088D01*
X03276154Y02975951D01*
X03277652Y02974778D01*
X03279121Y02973568D01*
X03280560Y02972324D01*
X03281969Y02971045D01*
X03283347Y02969732D01*
X03284692Y02968387D01*
X03286005Y02967009D01*
X03287284Y02965600D01*
X03288528Y02964161D01*
X03289738Y02962692D01*
X03290911Y02961194D01*
X03292048Y02959668D01*
X03293148Y02958115D01*
X03294210Y02956537D01*
X03295233Y02954932D01*
X03296217Y02953304D01*
X03297162Y02951652D01*
X03298067Y02949978D01*
X03298931Y02948283D01*
X03299753Y02946567D01*
X03300534Y02944832D01*
X03301273Y02943078D01*
X03301969Y02941308D01*
X03302622Y02939520D01*
X03303232Y02937718D01*
X03303798Y02935901D01*
X03304320Y02934072D01*
X03304798Y02932230D01*
X03305231Y02930377D01*
X03305619Y02928514D01*
X03305962Y02926642D01*
X03306260Y02924763D01*
X03306512Y02922877D01*
X03306718Y02920986D01*
X03306879Y02919090D01*
X03306994Y02917190D01*
X03307063Y02915289D01*
X03307086Y02913386D01*
X03307087Y02913386D02*
X03307087Y01889764D01*
X03307086Y01889764D02*
X03307063Y01887861D01*
X03306994Y01885960D01*
X03306879Y01884060D01*
X03306718Y01882164D01*
X03306512Y01880273D01*
X03306260Y01878387D01*
X03305962Y01876508D01*
X03305619Y01874636D01*
X03305231Y01872773D01*
X03304798Y01870920D01*
X03304320Y01869078D01*
X03303798Y01867249D01*
X03303232Y01865432D01*
X03302622Y01863630D01*
X03301969Y01861842D01*
X03301273Y01860072D01*
X03300534Y01858318D01*
X03299753Y01856583D01*
X03298931Y01854867D01*
X03298067Y01853172D01*
X03297162Y01851498D01*
X03296217Y01849846D01*
X03295233Y01848218D01*
X03294210Y01846613D01*
X03293148Y01845035D01*
X03292048Y01843482D01*
X03290911Y01841956D01*
X03289738Y01840458D01*
X03288528Y01838989D01*
X03287284Y01837550D01*
X03286005Y01836141D01*
X03284692Y01834763D01*
X03283347Y01833418D01*
X03281969Y01832105D01*
X03280560Y01830826D01*
X03279121Y01829582D01*
X03277652Y01828372D01*
X03276154Y01827199D01*
X03274628Y01826062D01*
X03273075Y01824962D01*
X03271497Y01823900D01*
X03269892Y01822877D01*
X03268264Y01821893D01*
X03266612Y01820948D01*
X03264938Y01820043D01*
X03263243Y01819179D01*
X03261527Y01818357D01*
X03259792Y01817576D01*
X03258038Y01816837D01*
X03256268Y01816141D01*
X03254480Y01815488D01*
X03252678Y01814878D01*
X03250861Y01814312D01*
X03249032Y01813790D01*
X03247190Y01813312D01*
X03245337Y01812879D01*
X03243474Y01812491D01*
X03241602Y01812148D01*
X03239723Y01811850D01*
X03237837Y01811598D01*
X03235946Y01811392D01*
X03234050Y01811231D01*
X03232150Y01811116D01*
X03230249Y01811047D01*
X03228346Y01811024D01*
X03145669Y01811024D01*
X03145669Y00708661D01*
X00673228Y00708661D01*
X01846457Y01696850D02*
X01846476Y01698396D01*
X01846533Y01699941D01*
X01846628Y01701484D01*
X01846760Y01703024D01*
X01846931Y01704561D01*
X01847139Y01706093D01*
X01847384Y01707619D01*
X01847667Y01709139D01*
X01847988Y01710652D01*
X01848345Y01712156D01*
X01848739Y01713651D01*
X01849169Y01715136D01*
X01849636Y01716609D01*
X01850139Y01718071D01*
X01850678Y01719521D01*
X01851252Y01720956D01*
X01851861Y01722377D01*
X01852505Y01723783D01*
X01853183Y01725172D01*
X01853895Y01726544D01*
X01854640Y01727899D01*
X01855419Y01729234D01*
X01856230Y01730551D01*
X01857073Y01731846D01*
X01857948Y01733121D01*
X01858853Y01734374D01*
X01859789Y01735605D01*
X01860756Y01736812D01*
X01861751Y01737995D01*
X01862775Y01739153D01*
X01863827Y01740286D01*
X01864907Y01741392D01*
X01866013Y01742472D01*
X01867146Y01743524D01*
X01868304Y01744548D01*
X01869487Y01745543D01*
X01870694Y01746510D01*
X01871925Y01747446D01*
X01873178Y01748351D01*
X01874453Y01749226D01*
X01875748Y01750069D01*
X01877065Y01750880D01*
X01878400Y01751659D01*
X01879755Y01752404D01*
X01881127Y01753116D01*
X01882516Y01753794D01*
X01883922Y01754438D01*
X01885343Y01755047D01*
X01886778Y01755621D01*
X01888228Y01756160D01*
X01889690Y01756663D01*
X01891163Y01757130D01*
X01892648Y01757560D01*
X01894143Y01757954D01*
X01895647Y01758311D01*
X01897160Y01758632D01*
X01898680Y01758915D01*
X01900206Y01759160D01*
X01901738Y01759368D01*
X01903275Y01759539D01*
X01904815Y01759671D01*
X01906358Y01759766D01*
X01907903Y01759823D01*
X01909449Y01759842D01*
X01910995Y01759823D01*
X01912540Y01759766D01*
X01914083Y01759671D01*
X01915623Y01759539D01*
X01917160Y01759368D01*
X01918692Y01759160D01*
X01920218Y01758915D01*
X01921738Y01758632D01*
X01923251Y01758311D01*
X01924755Y01757954D01*
X01926250Y01757560D01*
X01927735Y01757130D01*
X01929208Y01756663D01*
X01930670Y01756160D01*
X01932120Y01755621D01*
X01933555Y01755047D01*
X01934976Y01754438D01*
X01936382Y01753794D01*
X01937771Y01753116D01*
X01939143Y01752404D01*
X01940498Y01751659D01*
X01941833Y01750880D01*
X01943150Y01750069D01*
X01944445Y01749226D01*
X01945720Y01748351D01*
X01946973Y01747446D01*
X01948204Y01746510D01*
X01949411Y01745543D01*
X01950594Y01744548D01*
X01951752Y01743524D01*
X01952885Y01742472D01*
X01953991Y01741392D01*
X01955071Y01740286D01*
X01956123Y01739153D01*
X01957147Y01737995D01*
X01958142Y01736812D01*
X01959109Y01735605D01*
X01960045Y01734374D01*
X01960950Y01733121D01*
X01961825Y01731846D01*
X01962668Y01730551D01*
X01963479Y01729234D01*
X01964258Y01727899D01*
X01965003Y01726544D01*
X01965715Y01725172D01*
X01966393Y01723783D01*
X01967037Y01722377D01*
X01967646Y01720956D01*
X01968220Y01719521D01*
X01968759Y01718071D01*
X01969262Y01716609D01*
X01969729Y01715136D01*
X01970159Y01713651D01*
X01970553Y01712156D01*
X01970910Y01710652D01*
X01971231Y01709139D01*
X01971514Y01707619D01*
X01971759Y01706093D01*
X01971967Y01704561D01*
X01972138Y01703024D01*
X01972270Y01701484D01*
X01972365Y01699941D01*
X01972422Y01698396D01*
X01972441Y01696850D01*
X01972422Y01695304D01*
X01972365Y01693759D01*
X01972270Y01692216D01*
X01972138Y01690676D01*
X01971967Y01689139D01*
X01971759Y01687607D01*
X01971514Y01686081D01*
X01971231Y01684561D01*
X01970910Y01683048D01*
X01970553Y01681544D01*
X01970159Y01680049D01*
X01969729Y01678564D01*
X01969262Y01677091D01*
X01968759Y01675629D01*
X01968220Y01674179D01*
X01967646Y01672744D01*
X01967037Y01671323D01*
X01966393Y01669917D01*
X01965715Y01668528D01*
X01965003Y01667156D01*
X01964258Y01665801D01*
X01963479Y01664466D01*
X01962668Y01663149D01*
X01961825Y01661854D01*
X01960950Y01660579D01*
X01960045Y01659326D01*
X01959109Y01658095D01*
X01958142Y01656888D01*
X01957147Y01655705D01*
X01956123Y01654547D01*
X01955071Y01653414D01*
X01953991Y01652308D01*
X01952885Y01651228D01*
X01951752Y01650176D01*
X01950594Y01649152D01*
X01949411Y01648157D01*
X01948204Y01647190D01*
X01946973Y01646254D01*
X01945720Y01645349D01*
X01944445Y01644474D01*
X01943150Y01643631D01*
X01941833Y01642820D01*
X01940498Y01642041D01*
X01939143Y01641296D01*
X01937771Y01640584D01*
X01936382Y01639906D01*
X01934976Y01639262D01*
X01933555Y01638653D01*
X01932120Y01638079D01*
X01930670Y01637540D01*
X01929208Y01637037D01*
X01927735Y01636570D01*
X01926250Y01636140D01*
X01924755Y01635746D01*
X01923251Y01635389D01*
X01921738Y01635068D01*
X01920218Y01634785D01*
X01918692Y01634540D01*
X01917160Y01634332D01*
X01915623Y01634161D01*
X01914083Y01634029D01*
X01912540Y01633934D01*
X01910995Y01633877D01*
X01909449Y01633858D01*
X01907903Y01633877D01*
X01906358Y01633934D01*
X01904815Y01634029D01*
X01903275Y01634161D01*
X01901738Y01634332D01*
X01900206Y01634540D01*
X01898680Y01634785D01*
X01897160Y01635068D01*
X01895647Y01635389D01*
X01894143Y01635746D01*
X01892648Y01636140D01*
X01891163Y01636570D01*
X01889690Y01637037D01*
X01888228Y01637540D01*
X01886778Y01638079D01*
X01885343Y01638653D01*
X01883922Y01639262D01*
X01882516Y01639906D01*
X01881127Y01640584D01*
X01879755Y01641296D01*
X01878400Y01642041D01*
X01877065Y01642820D01*
X01875748Y01643631D01*
X01874453Y01644474D01*
X01873178Y01645349D01*
X01871925Y01646254D01*
X01870694Y01647190D01*
X01869487Y01648157D01*
X01868304Y01649152D01*
X01867146Y01650176D01*
X01866013Y01651228D01*
X01864907Y01652308D01*
X01863827Y01653414D01*
X01862775Y01654547D01*
X01861751Y01655705D01*
X01860756Y01656888D01*
X01859789Y01658095D01*
X01858853Y01659326D01*
X01857948Y01660579D01*
X01857073Y01661854D01*
X01856230Y01663149D01*
X01855419Y01664466D01*
X01854640Y01665801D01*
X01853895Y01667156D01*
X01853183Y01668528D01*
X01852505Y01669917D01*
X01851861Y01671323D01*
X01851252Y01672744D01*
X01850678Y01674179D01*
X01850139Y01675629D01*
X01849636Y01677091D01*
X01849169Y01678564D01*
X01848739Y01680049D01*
X01848345Y01681544D01*
X01847988Y01683048D01*
X01847667Y01684561D01*
X01847384Y01686081D01*
X01847139Y01687607D01*
X01846931Y01689139D01*
X01846760Y01690676D01*
X01846628Y01692216D01*
X01846533Y01693759D01*
X01846476Y01695304D01*
X01846457Y01696850D01*
M02*
