G75*
%MOIN*%
%OFA0B0*%
%FSLAX26Y26*%
%IPPOS*%
%LPD*%
%AMOC8*
5,1,8,0,0,1.08239X$1,22.5*
%
%ADD10C,0.006000*%
%ADD11C,0.007000*%
%ADD12C,0.052000*%
%ADD13R,0.050000X0.550000*%
%ADD14OC8,0.052000*%
%ADD15OC8,0.063000*%
%ADD16C,0.063000*%
%ADD17C,0.050000*%
%ADD18C,0.032000*%
%ADD19C,0.020000*%
%ADD20C,0.040000*%
%ADD21C,0.016000*%
%ADD22C,0.067717*%
D10*
X00733355Y02617173D02*
X00773766Y02689913D01*
X00733355Y02689913D01*
X00794963Y02689913D02*
X00819210Y02617173D01*
X00843457Y02689913D01*
X00837395Y02671728D02*
X00801025Y02671728D01*
X00773766Y02617173D02*
X00733355Y02617173D01*
D11*
X01519853Y02402012D02*
X01547703Y02318461D01*
X01575553Y02402012D01*
X01568591Y02381124D02*
X01526815Y02381124D01*
X01600986Y02369520D02*
X01656687Y02369520D01*
X01682120Y02318461D02*
X01709970Y02402012D01*
X01737821Y02318461D01*
X01759326Y02318461D02*
X01796460Y02318461D01*
X01796460Y02402012D01*
X01759326Y02402012D01*
X01768609Y02355594D02*
X01796460Y02355594D01*
X01847023Y02364878D02*
X01828456Y02402012D01*
X01851665Y02364878D02*
X01874874Y02364878D01*
X01851665Y02364878D02*
X01851100Y02364871D01*
X01850535Y02364850D01*
X01849971Y02364816D01*
X01849408Y02364768D01*
X01848846Y02364706D01*
X01848286Y02364631D01*
X01847728Y02364542D01*
X01847172Y02364439D01*
X01846619Y02364323D01*
X01846069Y02364193D01*
X01845522Y02364050D01*
X01844979Y02363894D01*
X01844439Y02363725D01*
X01843904Y02363542D01*
X01843374Y02363347D01*
X01842849Y02363138D01*
X01842328Y02362917D01*
X01841814Y02362684D01*
X01841305Y02362437D01*
X01840802Y02362179D01*
X01840306Y02361908D01*
X01839817Y02361626D01*
X01839334Y02361331D01*
X01838859Y02361025D01*
X01838391Y02360708D01*
X01837932Y02360379D01*
X01837480Y02360039D01*
X01837037Y02359688D01*
X01836603Y02359326D01*
X01836177Y02358954D01*
X01835761Y02358572D01*
X01835354Y02358180D01*
X01834957Y02357778D01*
X01834569Y02357366D01*
X01834192Y02356945D01*
X01833825Y02356515D01*
X01833469Y02356076D01*
X01833124Y02355629D01*
X01832789Y02355173D01*
X01832466Y02354710D01*
X01832154Y02354238D01*
X01831854Y02353760D01*
X01831565Y02353274D01*
X01831289Y02352781D01*
X01831024Y02352281D01*
X01830772Y02351775D01*
X01830532Y02351264D01*
X01830305Y02350746D01*
X01830090Y02350223D01*
X01829888Y02349695D01*
X01829699Y02349163D01*
X01829523Y02348626D01*
X01829360Y02348084D01*
X01829211Y02347539D01*
X01829074Y02346991D01*
X01828951Y02346439D01*
X01828842Y02345885D01*
X01828746Y02345328D01*
X01828664Y02344768D01*
X01828595Y02344207D01*
X01828540Y02343645D01*
X01828499Y02343081D01*
X01828471Y02342517D01*
X01828458Y02341952D01*
X01828458Y02341386D01*
X01828471Y02340821D01*
X01828499Y02340257D01*
X01828540Y02339693D01*
X01828595Y02339131D01*
X01828664Y02338570D01*
X01828746Y02338010D01*
X01828842Y02337453D01*
X01828951Y02336899D01*
X01829074Y02336347D01*
X01829211Y02335799D01*
X01829360Y02335254D01*
X01829523Y02334712D01*
X01829699Y02334175D01*
X01829888Y02333643D01*
X01830090Y02333115D01*
X01830305Y02332592D01*
X01830532Y02332074D01*
X01830772Y02331563D01*
X01831024Y02331057D01*
X01831289Y02330557D01*
X01831565Y02330065D01*
X01831854Y02329578D01*
X01832154Y02329100D01*
X01832466Y02328628D01*
X01832789Y02328165D01*
X01833124Y02327709D01*
X01833469Y02327262D01*
X01833825Y02326823D01*
X01834192Y02326393D01*
X01834569Y02325972D01*
X01834957Y02325560D01*
X01835354Y02325158D01*
X01835761Y02324766D01*
X01836177Y02324384D01*
X01836603Y02324012D01*
X01837037Y02323650D01*
X01837480Y02323299D01*
X01837932Y02322959D01*
X01838391Y02322630D01*
X01838859Y02322313D01*
X01839334Y02322007D01*
X01839817Y02321712D01*
X01840306Y02321430D01*
X01840802Y02321159D01*
X01841305Y02320901D01*
X01841814Y02320654D01*
X01842328Y02320421D01*
X01842849Y02320200D01*
X01843374Y02319991D01*
X01843904Y02319796D01*
X01844439Y02319613D01*
X01844979Y02319444D01*
X01845522Y02319288D01*
X01846069Y02319145D01*
X01846619Y02319015D01*
X01847172Y02318899D01*
X01847728Y02318796D01*
X01848286Y02318707D01*
X01848846Y02318632D01*
X01849408Y02318570D01*
X01849971Y02318522D01*
X01850535Y02318488D01*
X01851100Y02318467D01*
X01851665Y02318460D01*
X01851665Y02318461D02*
X01874874Y02318461D01*
X01874874Y02402012D01*
X01907773Y02369520D02*
X01963473Y02369520D01*
X01993548Y02378803D02*
X01993555Y02379368D01*
X01993576Y02379933D01*
X01993610Y02380497D01*
X01993658Y02381060D01*
X01993720Y02381622D01*
X01993795Y02382182D01*
X01993884Y02382740D01*
X01993987Y02383296D01*
X01994103Y02383849D01*
X01994233Y02384399D01*
X01994376Y02384946D01*
X01994532Y02385489D01*
X01994701Y02386029D01*
X01994884Y02386564D01*
X01995079Y02387094D01*
X01995288Y02387619D01*
X01995509Y02388140D01*
X01995742Y02388654D01*
X01995989Y02389163D01*
X01996247Y02389666D01*
X01996518Y02390162D01*
X01996800Y02390651D01*
X01997095Y02391134D01*
X01997401Y02391609D01*
X01997718Y02392077D01*
X01998047Y02392536D01*
X01998387Y02392988D01*
X01998738Y02393431D01*
X01999100Y02393865D01*
X01999472Y02394291D01*
X01999854Y02394707D01*
X02000246Y02395114D01*
X02000648Y02395511D01*
X02001060Y02395899D01*
X02001481Y02396276D01*
X02001911Y02396643D01*
X02002350Y02396999D01*
X02002797Y02397344D01*
X02003253Y02397679D01*
X02003716Y02398002D01*
X02004188Y02398314D01*
X02004666Y02398614D01*
X02005153Y02398903D01*
X02005645Y02399179D01*
X02006145Y02399444D01*
X02006651Y02399696D01*
X02007162Y02399936D01*
X02007680Y02400163D01*
X02008203Y02400378D01*
X02008731Y02400580D01*
X02009263Y02400769D01*
X02009800Y02400945D01*
X02010342Y02401108D01*
X02010887Y02401257D01*
X02011435Y02401394D01*
X02011987Y02401517D01*
X02012541Y02401626D01*
X02013098Y02401722D01*
X02013658Y02401804D01*
X02014219Y02401873D01*
X02014781Y02401928D01*
X02015345Y02401969D01*
X02015909Y02401997D01*
X02016474Y02402010D01*
X02017040Y02402010D01*
X02017605Y02401997D01*
X02018169Y02401969D01*
X02018733Y02401928D01*
X02019295Y02401873D01*
X02019856Y02401804D01*
X02020416Y02401722D01*
X02020973Y02401626D01*
X02021527Y02401517D01*
X02022079Y02401394D01*
X02022627Y02401257D01*
X02023172Y02401108D01*
X02023714Y02400945D01*
X02024251Y02400769D01*
X02024783Y02400580D01*
X02025311Y02400378D01*
X02025834Y02400163D01*
X02026352Y02399936D01*
X02026863Y02399696D01*
X02027369Y02399444D01*
X02027869Y02399179D01*
X02028362Y02398903D01*
X02028848Y02398614D01*
X02029326Y02398314D01*
X02029798Y02398002D01*
X02030261Y02397679D01*
X02030717Y02397344D01*
X02031164Y02396999D01*
X02031603Y02396643D01*
X02032033Y02396276D01*
X02032454Y02395899D01*
X02032866Y02395511D01*
X02033268Y02395114D01*
X02033660Y02394707D01*
X02034042Y02394291D01*
X02034414Y02393865D01*
X02034776Y02393431D01*
X02035127Y02392988D01*
X02035467Y02392536D01*
X02035796Y02392077D01*
X02036113Y02391609D01*
X02036419Y02391134D01*
X02036714Y02390651D01*
X02036996Y02390162D01*
X02037267Y02389666D01*
X02037525Y02389163D01*
X02037772Y02388654D01*
X02038005Y02388140D01*
X02038226Y02387619D01*
X02038435Y02387094D01*
X02038630Y02386564D01*
X02038813Y02386029D01*
X02038982Y02385489D01*
X02039138Y02384946D01*
X02039281Y02384399D01*
X02039411Y02383849D01*
X02039527Y02383296D01*
X02039630Y02382740D01*
X02039719Y02382182D01*
X02039794Y02381622D01*
X02039856Y02381060D01*
X02039904Y02380497D01*
X02039938Y02379933D01*
X02039959Y02379368D01*
X02039966Y02378803D01*
X02039959Y02378238D01*
X02039938Y02377673D01*
X02039904Y02377109D01*
X02039856Y02376546D01*
X02039794Y02375984D01*
X02039719Y02375424D01*
X02039630Y02374866D01*
X02039527Y02374310D01*
X02039411Y02373757D01*
X02039281Y02373207D01*
X02039138Y02372660D01*
X02038982Y02372117D01*
X02038813Y02371577D01*
X02038630Y02371042D01*
X02038435Y02370512D01*
X02038226Y02369987D01*
X02038005Y02369466D01*
X02037772Y02368952D01*
X02037525Y02368443D01*
X02037267Y02367940D01*
X02036996Y02367444D01*
X02036714Y02366955D01*
X02036419Y02366472D01*
X02036113Y02365997D01*
X02035796Y02365529D01*
X02035467Y02365070D01*
X02035127Y02364618D01*
X02034776Y02364175D01*
X02034414Y02363741D01*
X02034042Y02363315D01*
X02033660Y02362899D01*
X02033268Y02362492D01*
X02032866Y02362095D01*
X02032454Y02361707D01*
X02032033Y02361330D01*
X02031603Y02360963D01*
X02031164Y02360607D01*
X02030717Y02360262D01*
X02030261Y02359927D01*
X02029798Y02359604D01*
X02029326Y02359292D01*
X02028848Y02358992D01*
X02028362Y02358703D01*
X02027869Y02358427D01*
X02027369Y02358162D01*
X02026863Y02357910D01*
X02026352Y02357670D01*
X02025834Y02357443D01*
X02025311Y02357228D01*
X02024783Y02357026D01*
X02024251Y02356837D01*
X02023714Y02356661D01*
X02023172Y02356498D01*
X02022627Y02356349D01*
X02022079Y02356212D01*
X02021527Y02356089D01*
X02020973Y02355980D01*
X02020416Y02355884D01*
X02019856Y02355802D01*
X02019295Y02355733D01*
X02018733Y02355678D01*
X02018169Y02355637D01*
X02017605Y02355609D01*
X02017040Y02355596D01*
X02016474Y02355596D01*
X02015909Y02355609D01*
X02015345Y02355637D01*
X02014781Y02355678D01*
X02014219Y02355733D01*
X02013658Y02355802D01*
X02013098Y02355884D01*
X02012541Y02355980D01*
X02011987Y02356089D01*
X02011435Y02356212D01*
X02010887Y02356349D01*
X02010342Y02356498D01*
X02009800Y02356661D01*
X02009263Y02356837D01*
X02008731Y02357026D01*
X02008203Y02357228D01*
X02007680Y02357443D01*
X02007162Y02357670D01*
X02006651Y02357910D01*
X02006145Y02358162D01*
X02005645Y02358427D01*
X02005153Y02358703D01*
X02004666Y02358992D01*
X02004188Y02359292D01*
X02003716Y02359604D01*
X02003253Y02359927D01*
X02002797Y02360262D01*
X02002350Y02360607D01*
X02001911Y02360963D01*
X02001481Y02361330D01*
X02001060Y02361707D01*
X02000648Y02362095D01*
X02000246Y02362492D01*
X01999854Y02362899D01*
X01999472Y02363315D01*
X01999100Y02363741D01*
X01998738Y02364175D01*
X01998387Y02364618D01*
X01998047Y02365070D01*
X01997718Y02365529D01*
X01997401Y02365997D01*
X01997095Y02366472D01*
X01996800Y02366955D01*
X01996518Y02367444D01*
X01996247Y02367940D01*
X01995989Y02368443D01*
X01995742Y02368952D01*
X01995509Y02369466D01*
X01995288Y02369987D01*
X01995079Y02370512D01*
X01994884Y02371042D01*
X01994701Y02371577D01*
X01994532Y02372117D01*
X01994376Y02372660D01*
X01994233Y02373207D01*
X01994103Y02373757D01*
X01993987Y02374310D01*
X01993884Y02374866D01*
X01993795Y02375424D01*
X01993720Y02375984D01*
X01993658Y02376546D01*
X01993610Y02377109D01*
X01993576Y02377673D01*
X01993555Y02378238D01*
X01993548Y02378803D01*
X01998190Y02337028D02*
X01998196Y02337480D01*
X01998212Y02337932D01*
X01998240Y02338383D01*
X01998278Y02338834D01*
X01998327Y02339283D01*
X01998388Y02339731D01*
X01998459Y02340178D01*
X01998541Y02340623D01*
X01998634Y02341065D01*
X01998738Y02341505D01*
X01998852Y02341943D01*
X01998977Y02342377D01*
X01999113Y02342809D01*
X01999259Y02343236D01*
X01999415Y02343661D01*
X01999582Y02344081D01*
X01999759Y02344497D01*
X01999946Y02344909D01*
X02000142Y02345316D01*
X02000349Y02345718D01*
X02000566Y02346115D01*
X02000792Y02346507D01*
X02001027Y02346893D01*
X02001272Y02347273D01*
X02001526Y02347647D01*
X02001789Y02348014D01*
X02002061Y02348376D01*
X02002342Y02348730D01*
X02002631Y02349078D01*
X02002929Y02349418D01*
X02003235Y02349751D01*
X02003548Y02350077D01*
X02003870Y02350394D01*
X02004199Y02350704D01*
X02004536Y02351006D01*
X02004880Y02351299D01*
X02005231Y02351584D01*
X02005589Y02351861D01*
X02005954Y02352128D01*
X02006325Y02352387D01*
X02006702Y02352636D01*
X02007085Y02352877D01*
X02007474Y02353107D01*
X02007868Y02353329D01*
X02008267Y02353540D01*
X02008672Y02353742D01*
X02009081Y02353934D01*
X02009495Y02354116D01*
X02009914Y02354288D01*
X02010336Y02354449D01*
X02010762Y02354601D01*
X02011192Y02354741D01*
X02011625Y02354872D01*
X02012061Y02354991D01*
X02012500Y02355100D01*
X02012941Y02355199D01*
X02013385Y02355286D01*
X02013830Y02355363D01*
X02014277Y02355429D01*
X02014726Y02355484D01*
X02015176Y02355528D01*
X02015627Y02355561D01*
X02016079Y02355583D01*
X02016531Y02355594D01*
X02016983Y02355594D01*
X02017435Y02355583D01*
X02017887Y02355561D01*
X02018338Y02355528D01*
X02018788Y02355484D01*
X02019237Y02355429D01*
X02019684Y02355363D01*
X02020129Y02355286D01*
X02020573Y02355199D01*
X02021014Y02355100D01*
X02021453Y02354991D01*
X02021889Y02354872D01*
X02022322Y02354741D01*
X02022752Y02354601D01*
X02023178Y02354449D01*
X02023600Y02354288D01*
X02024019Y02354116D01*
X02024433Y02353934D01*
X02024842Y02353742D01*
X02025247Y02353540D01*
X02025646Y02353329D01*
X02026041Y02353107D01*
X02026429Y02352877D01*
X02026812Y02352636D01*
X02027189Y02352387D01*
X02027560Y02352128D01*
X02027925Y02351861D01*
X02028283Y02351584D01*
X02028634Y02351299D01*
X02028978Y02351006D01*
X02029315Y02350704D01*
X02029644Y02350394D01*
X02029966Y02350077D01*
X02030279Y02349751D01*
X02030585Y02349418D01*
X02030883Y02349078D01*
X02031172Y02348730D01*
X02031453Y02348376D01*
X02031725Y02348014D01*
X02031988Y02347647D01*
X02032242Y02347273D01*
X02032487Y02346893D01*
X02032722Y02346507D01*
X02032948Y02346115D01*
X02033165Y02345718D01*
X02033372Y02345316D01*
X02033568Y02344909D01*
X02033755Y02344497D01*
X02033932Y02344081D01*
X02034099Y02343661D01*
X02034255Y02343236D01*
X02034401Y02342809D01*
X02034537Y02342377D01*
X02034662Y02341943D01*
X02034776Y02341505D01*
X02034880Y02341065D01*
X02034973Y02340623D01*
X02035055Y02340178D01*
X02035126Y02339731D01*
X02035187Y02339283D01*
X02035236Y02338834D01*
X02035274Y02338383D01*
X02035302Y02337932D01*
X02035318Y02337480D01*
X02035324Y02337028D01*
X02035318Y02336576D01*
X02035302Y02336124D01*
X02035274Y02335673D01*
X02035236Y02335222D01*
X02035187Y02334773D01*
X02035126Y02334325D01*
X02035055Y02333878D01*
X02034973Y02333433D01*
X02034880Y02332991D01*
X02034776Y02332551D01*
X02034662Y02332113D01*
X02034537Y02331679D01*
X02034401Y02331247D01*
X02034255Y02330820D01*
X02034099Y02330395D01*
X02033932Y02329975D01*
X02033755Y02329559D01*
X02033568Y02329147D01*
X02033372Y02328740D01*
X02033165Y02328338D01*
X02032948Y02327941D01*
X02032722Y02327549D01*
X02032487Y02327163D01*
X02032242Y02326783D01*
X02031988Y02326409D01*
X02031725Y02326042D01*
X02031453Y02325680D01*
X02031172Y02325326D01*
X02030883Y02324978D01*
X02030585Y02324638D01*
X02030279Y02324305D01*
X02029966Y02323979D01*
X02029644Y02323662D01*
X02029315Y02323352D01*
X02028978Y02323050D01*
X02028634Y02322757D01*
X02028283Y02322472D01*
X02027925Y02322195D01*
X02027560Y02321928D01*
X02027189Y02321669D01*
X02026812Y02321420D01*
X02026429Y02321179D01*
X02026041Y02320949D01*
X02025646Y02320727D01*
X02025247Y02320516D01*
X02024842Y02320314D01*
X02024433Y02320122D01*
X02024019Y02319940D01*
X02023600Y02319768D01*
X02023178Y02319607D01*
X02022752Y02319455D01*
X02022322Y02319315D01*
X02021889Y02319184D01*
X02021453Y02319065D01*
X02021014Y02318956D01*
X02020573Y02318857D01*
X02020129Y02318770D01*
X02019684Y02318693D01*
X02019237Y02318627D01*
X02018788Y02318572D01*
X02018338Y02318528D01*
X02017887Y02318495D01*
X02017435Y02318473D01*
X02016983Y02318462D01*
X02016531Y02318462D01*
X02016079Y02318473D01*
X02015627Y02318495D01*
X02015176Y02318528D01*
X02014726Y02318572D01*
X02014277Y02318627D01*
X02013830Y02318693D01*
X02013385Y02318770D01*
X02012941Y02318857D01*
X02012500Y02318956D01*
X02012061Y02319065D01*
X02011625Y02319184D01*
X02011192Y02319315D01*
X02010762Y02319455D01*
X02010336Y02319607D01*
X02009914Y02319768D01*
X02009495Y02319940D01*
X02009081Y02320122D01*
X02008672Y02320314D01*
X02008267Y02320516D01*
X02007868Y02320727D01*
X02007474Y02320949D01*
X02007085Y02321179D01*
X02006702Y02321420D01*
X02006325Y02321669D01*
X02005954Y02321928D01*
X02005589Y02322195D01*
X02005231Y02322472D01*
X02004880Y02322757D01*
X02004536Y02323050D01*
X02004199Y02323352D01*
X02003870Y02323662D01*
X02003548Y02323979D01*
X02003235Y02324305D01*
X02002929Y02324638D01*
X02002631Y02324978D01*
X02002342Y02325326D01*
X02002061Y02325680D01*
X02001789Y02326042D01*
X02001526Y02326409D01*
X02001272Y02326783D01*
X02001027Y02327163D01*
X02000792Y02327549D01*
X02000566Y02327941D01*
X02000349Y02328338D01*
X02000142Y02328740D01*
X01999946Y02329147D01*
X01999759Y02329559D01*
X01999582Y02329975D01*
X01999415Y02330395D01*
X01999259Y02330820D01*
X01999113Y02331247D01*
X01998977Y02331679D01*
X01998852Y02332113D01*
X01998738Y02332551D01*
X01998634Y02332991D01*
X01998541Y02333433D01*
X01998459Y02333878D01*
X01998388Y02334325D01*
X01998327Y02334773D01*
X01998278Y02335222D01*
X01998240Y02335673D01*
X01998212Y02336124D01*
X01998196Y02336576D01*
X01998190Y02337028D01*
X02092819Y02318461D02*
X02092819Y02402012D01*
X02069611Y02402012D02*
X02116028Y02402012D01*
X02145673Y02364878D02*
X02145673Y02341669D01*
X02145673Y02364878D02*
X02173524Y02364878D01*
X02145673Y02364878D02*
X02145684Y02365775D01*
X02145716Y02366672D01*
X02145771Y02367568D01*
X02145846Y02368462D01*
X02145944Y02369354D01*
X02146063Y02370243D01*
X02146203Y02371130D01*
X02146365Y02372012D01*
X02146548Y02372891D01*
X02146752Y02373765D01*
X02146977Y02374633D01*
X02147223Y02375496D01*
X02147490Y02376353D01*
X02147778Y02377203D01*
X02148086Y02378046D01*
X02148414Y02378881D01*
X02148763Y02379708D01*
X02149131Y02380526D01*
X02149519Y02381335D01*
X02149926Y02382135D01*
X02150353Y02382925D01*
X02150799Y02383703D01*
X02151263Y02384471D01*
X02151746Y02385228D01*
X02152246Y02385973D01*
X02152765Y02386705D01*
X02153301Y02387424D01*
X02153855Y02388131D01*
X02154425Y02388824D01*
X02155012Y02389502D01*
X02155615Y02390167D01*
X02156234Y02390817D01*
X02156868Y02391451D01*
X02157518Y02392070D01*
X02158183Y02392673D01*
X02158861Y02393260D01*
X02159554Y02393830D01*
X02160261Y02394384D01*
X02160980Y02394920D01*
X02161712Y02395439D01*
X02162457Y02395939D01*
X02163214Y02396422D01*
X02163982Y02396886D01*
X02164760Y02397332D01*
X02165550Y02397759D01*
X02166350Y02398166D01*
X02167159Y02398554D01*
X02167977Y02398922D01*
X02168804Y02399271D01*
X02169639Y02399599D01*
X02170482Y02399907D01*
X02171332Y02400195D01*
X02172189Y02400462D01*
X02173052Y02400708D01*
X02173920Y02400933D01*
X02174794Y02401137D01*
X02175673Y02401320D01*
X02176555Y02401482D01*
X02177442Y02401622D01*
X02178331Y02401741D01*
X02179223Y02401839D01*
X02180117Y02401914D01*
X02181013Y02401969D01*
X02181910Y02402001D01*
X02182807Y02402012D01*
X02261190Y02390407D02*
X02261893Y02388921D01*
X02262560Y02387419D01*
X02263191Y02385901D01*
X02263785Y02384369D01*
X02264343Y02382822D01*
X02264864Y02381263D01*
X02265347Y02379692D01*
X02265792Y02378110D01*
X02266200Y02376518D01*
X02266570Y02374916D01*
X02266901Y02373306D01*
X02267194Y02371689D01*
X02267448Y02370065D01*
X02267663Y02368435D01*
X02267839Y02366801D01*
X02267976Y02365163D01*
X02268075Y02363522D01*
X02268133Y02361880D01*
X02268153Y02360236D01*
X02221737Y02360236D02*
X02221757Y02361880D01*
X02221815Y02363522D01*
X02221914Y02365163D01*
X02222051Y02366801D01*
X02222227Y02368435D01*
X02222442Y02370065D01*
X02222696Y02371689D01*
X02222989Y02373306D01*
X02223320Y02374916D01*
X02223690Y02376518D01*
X02224098Y02378110D01*
X02224543Y02379692D01*
X02225026Y02381263D01*
X02225547Y02382822D01*
X02226105Y02384369D01*
X02226699Y02385901D01*
X02227330Y02387419D01*
X02227997Y02388921D01*
X02228700Y02390407D01*
X02228699Y02390407D02*
X02228840Y02390800D01*
X02228989Y02391190D01*
X02229149Y02391577D01*
X02229317Y02391959D01*
X02229495Y02392337D01*
X02229682Y02392710D01*
X02229878Y02393079D01*
X02230083Y02393443D01*
X02230297Y02393802D01*
X02230519Y02394156D01*
X02230750Y02394504D01*
X02230989Y02394846D01*
X02231237Y02395183D01*
X02231492Y02395513D01*
X02231756Y02395837D01*
X02232028Y02396154D01*
X02232307Y02396465D01*
X02232593Y02396769D01*
X02232887Y02397066D01*
X02233188Y02397356D01*
X02233496Y02397638D01*
X02233811Y02397913D01*
X02234132Y02398180D01*
X02234460Y02398439D01*
X02234794Y02398690D01*
X02235134Y02398932D01*
X02235479Y02399167D01*
X02235831Y02399393D01*
X02236187Y02399610D01*
X02236549Y02399819D01*
X02236916Y02400019D01*
X02237288Y02400209D01*
X02237664Y02400391D01*
X02238044Y02400564D01*
X02238429Y02400727D01*
X02238817Y02400881D01*
X02239209Y02401025D01*
X02239605Y02401160D01*
X02240003Y02401285D01*
X02240405Y02401400D01*
X02240809Y02401505D01*
X02241215Y02401601D01*
X02241624Y02401687D01*
X02242035Y02401763D01*
X02242448Y02401828D01*
X02242861Y02401884D01*
X02243277Y02401930D01*
X02243693Y02401965D01*
X02244110Y02401991D01*
X02244527Y02402006D01*
X02244945Y02402011D01*
X02245363Y02402006D01*
X02245780Y02401991D01*
X02246197Y02401965D01*
X02246613Y02401930D01*
X02247029Y02401884D01*
X02247442Y02401828D01*
X02247855Y02401763D01*
X02248266Y02401687D01*
X02248675Y02401601D01*
X02249081Y02401505D01*
X02249485Y02401400D01*
X02249887Y02401285D01*
X02250285Y02401160D01*
X02250681Y02401025D01*
X02251073Y02400881D01*
X02251461Y02400727D01*
X02251846Y02400564D01*
X02252226Y02400391D01*
X02252602Y02400209D01*
X02252974Y02400019D01*
X02253341Y02399819D01*
X02253703Y02399610D01*
X02254059Y02399393D01*
X02254411Y02399167D01*
X02254756Y02398932D01*
X02255096Y02398690D01*
X02255430Y02398439D01*
X02255758Y02398180D01*
X02256079Y02397913D01*
X02256394Y02397638D01*
X02256702Y02397356D01*
X02257003Y02397066D01*
X02257297Y02396769D01*
X02257583Y02396465D01*
X02257862Y02396154D01*
X02258134Y02395837D01*
X02258398Y02395513D01*
X02258653Y02395183D01*
X02258901Y02394846D01*
X02259140Y02394504D01*
X02259371Y02394156D01*
X02259593Y02393802D01*
X02259807Y02393443D01*
X02260012Y02393079D01*
X02260208Y02392710D01*
X02260395Y02392337D01*
X02260573Y02391959D01*
X02260741Y02391577D01*
X02260901Y02391190D01*
X02261050Y02390800D01*
X02261191Y02390407D01*
X02263512Y02383445D02*
X02226378Y02337028D01*
X02228699Y02330065D02*
X02228840Y02329672D01*
X02228989Y02329282D01*
X02229149Y02328895D01*
X02229317Y02328513D01*
X02229495Y02328135D01*
X02229682Y02327762D01*
X02229878Y02327393D01*
X02230083Y02327029D01*
X02230297Y02326670D01*
X02230519Y02326316D01*
X02230750Y02325968D01*
X02230989Y02325626D01*
X02231237Y02325289D01*
X02231492Y02324959D01*
X02231756Y02324635D01*
X02232028Y02324318D01*
X02232307Y02324007D01*
X02232593Y02323703D01*
X02232887Y02323406D01*
X02233188Y02323116D01*
X02233496Y02322834D01*
X02233811Y02322559D01*
X02234132Y02322292D01*
X02234460Y02322033D01*
X02234794Y02321782D01*
X02235134Y02321540D01*
X02235479Y02321305D01*
X02235831Y02321079D01*
X02236187Y02320862D01*
X02236549Y02320653D01*
X02236916Y02320453D01*
X02237288Y02320263D01*
X02237664Y02320081D01*
X02238044Y02319908D01*
X02238429Y02319745D01*
X02238817Y02319591D01*
X02239209Y02319447D01*
X02239605Y02319312D01*
X02240003Y02319187D01*
X02240405Y02319072D01*
X02240809Y02318967D01*
X02241215Y02318871D01*
X02241624Y02318785D01*
X02242035Y02318709D01*
X02242448Y02318644D01*
X02242861Y02318588D01*
X02243277Y02318542D01*
X02243693Y02318507D01*
X02244110Y02318481D01*
X02244527Y02318466D01*
X02244945Y02318461D01*
X02245363Y02318466D01*
X02245780Y02318481D01*
X02246197Y02318507D01*
X02246613Y02318542D01*
X02247029Y02318588D01*
X02247442Y02318644D01*
X02247855Y02318709D01*
X02248266Y02318785D01*
X02248675Y02318871D01*
X02249081Y02318967D01*
X02249485Y02319072D01*
X02249887Y02319187D01*
X02250285Y02319312D01*
X02250681Y02319447D01*
X02251073Y02319591D01*
X02251461Y02319745D01*
X02251846Y02319908D01*
X02252226Y02320081D01*
X02252602Y02320263D01*
X02252974Y02320453D01*
X02253341Y02320653D01*
X02253703Y02320862D01*
X02254059Y02321079D01*
X02254411Y02321305D01*
X02254756Y02321540D01*
X02255096Y02321782D01*
X02255430Y02322033D01*
X02255758Y02322292D01*
X02256079Y02322559D01*
X02256394Y02322834D01*
X02256702Y02323116D01*
X02257003Y02323406D01*
X02257297Y02323703D01*
X02257583Y02324007D01*
X02257862Y02324318D01*
X02258134Y02324635D01*
X02258398Y02324959D01*
X02258653Y02325289D01*
X02258901Y02325626D01*
X02259140Y02325968D01*
X02259371Y02326316D01*
X02259593Y02326670D01*
X02259807Y02327029D01*
X02260012Y02327393D01*
X02260208Y02327762D01*
X02260395Y02328135D01*
X02260573Y02328513D01*
X02260741Y02328895D01*
X02260901Y02329282D01*
X02261050Y02329672D01*
X02261191Y02330065D01*
X02228700Y02330065D02*
X02227997Y02331551D01*
X02227330Y02333053D01*
X02226699Y02334571D01*
X02226105Y02336103D01*
X02225547Y02337650D01*
X02225026Y02339209D01*
X02224543Y02340780D01*
X02224098Y02342362D01*
X02223690Y02343954D01*
X02223320Y02345556D01*
X02222989Y02347166D01*
X02222696Y02348783D01*
X02222442Y02350407D01*
X02222227Y02352037D01*
X02222051Y02353671D01*
X02221914Y02355309D01*
X02221815Y02356950D01*
X02221757Y02358592D01*
X02221737Y02360236D01*
X02268153Y02360236D02*
X02268133Y02358592D01*
X02268075Y02356950D01*
X02267976Y02355309D01*
X02267839Y02353671D01*
X02267663Y02352037D01*
X02267448Y02350407D01*
X02267194Y02348783D01*
X02266901Y02347166D01*
X02266570Y02345556D01*
X02266200Y02343954D01*
X02265792Y02342362D01*
X02265347Y02340780D01*
X02264864Y02339209D01*
X02264343Y02337650D01*
X02263785Y02336103D01*
X02263191Y02334571D01*
X02262560Y02333053D01*
X02261893Y02331551D01*
X02261190Y02330065D01*
X02192091Y02341669D02*
X02192091Y02346311D01*
X02192086Y02346760D01*
X02192069Y02347208D01*
X02192042Y02347656D01*
X02192004Y02348103D01*
X02191956Y02348549D01*
X02191896Y02348994D01*
X02191826Y02349437D01*
X02191745Y02349878D01*
X02191654Y02350317D01*
X02191551Y02350754D01*
X02191439Y02351189D01*
X02191316Y02351620D01*
X02191182Y02352049D01*
X02191038Y02352474D01*
X02190884Y02352895D01*
X02190720Y02353313D01*
X02190546Y02353726D01*
X02190362Y02354135D01*
X02190168Y02354540D01*
X02189964Y02354940D01*
X02189751Y02355334D01*
X02189528Y02355724D01*
X02189296Y02356108D01*
X02189055Y02356486D01*
X02188804Y02356858D01*
X02188545Y02357224D01*
X02188277Y02357584D01*
X02188000Y02357937D01*
X02187715Y02358284D01*
X02187422Y02358623D01*
X02187120Y02358955D01*
X02186811Y02359280D01*
X02186493Y02359598D01*
X02186168Y02359907D01*
X02185836Y02360209D01*
X02185497Y02360502D01*
X02185150Y02360787D01*
X02184797Y02361064D01*
X02184437Y02361332D01*
X02184071Y02361591D01*
X02183699Y02361842D01*
X02183321Y02362083D01*
X02182937Y02362315D01*
X02182547Y02362538D01*
X02182153Y02362751D01*
X02181753Y02362955D01*
X02181348Y02363149D01*
X02180939Y02363333D01*
X02180526Y02363507D01*
X02180108Y02363671D01*
X02179687Y02363825D01*
X02179262Y02363969D01*
X02178833Y02364103D01*
X02178402Y02364226D01*
X02177967Y02364338D01*
X02177530Y02364441D01*
X02177091Y02364532D01*
X02176650Y02364613D01*
X02176207Y02364683D01*
X02175762Y02364743D01*
X02175316Y02364791D01*
X02174869Y02364829D01*
X02174421Y02364856D01*
X02173973Y02364873D01*
X02173524Y02364878D01*
X02192091Y02341669D02*
X02192084Y02341104D01*
X02192063Y02340539D01*
X02192029Y02339975D01*
X02191981Y02339412D01*
X02191919Y02338850D01*
X02191844Y02338290D01*
X02191755Y02337732D01*
X02191652Y02337176D01*
X02191536Y02336623D01*
X02191406Y02336073D01*
X02191263Y02335526D01*
X02191107Y02334983D01*
X02190938Y02334443D01*
X02190755Y02333908D01*
X02190560Y02333378D01*
X02190351Y02332853D01*
X02190130Y02332332D01*
X02189897Y02331818D01*
X02189650Y02331309D01*
X02189392Y02330806D01*
X02189121Y02330310D01*
X02188839Y02329821D01*
X02188544Y02329338D01*
X02188238Y02328863D01*
X02187921Y02328395D01*
X02187592Y02327936D01*
X02187252Y02327484D01*
X02186901Y02327041D01*
X02186539Y02326607D01*
X02186167Y02326181D01*
X02185785Y02325765D01*
X02185393Y02325358D01*
X02184991Y02324961D01*
X02184579Y02324573D01*
X02184158Y02324196D01*
X02183728Y02323829D01*
X02183289Y02323473D01*
X02182842Y02323128D01*
X02182386Y02322793D01*
X02181923Y02322470D01*
X02181451Y02322158D01*
X02180973Y02321858D01*
X02180487Y02321569D01*
X02179994Y02321293D01*
X02179494Y02321028D01*
X02178988Y02320776D01*
X02178477Y02320536D01*
X02177959Y02320309D01*
X02177436Y02320094D01*
X02176908Y02319892D01*
X02176376Y02319703D01*
X02175839Y02319527D01*
X02175297Y02319364D01*
X02174752Y02319215D01*
X02174204Y02319078D01*
X02173652Y02318955D01*
X02173098Y02318846D01*
X02172541Y02318750D01*
X02171981Y02318668D01*
X02171420Y02318599D01*
X02170858Y02318544D01*
X02170294Y02318503D01*
X02169730Y02318475D01*
X02169165Y02318462D01*
X02168599Y02318462D01*
X02168034Y02318475D01*
X02167470Y02318503D01*
X02166906Y02318544D01*
X02166344Y02318599D01*
X02165783Y02318668D01*
X02165223Y02318750D01*
X02164666Y02318846D01*
X02164112Y02318955D01*
X02163560Y02319078D01*
X02163012Y02319215D01*
X02162467Y02319364D01*
X02161925Y02319527D01*
X02161388Y02319703D01*
X02160856Y02319892D01*
X02160328Y02320094D01*
X02159805Y02320309D01*
X02159287Y02320536D01*
X02158776Y02320776D01*
X02158270Y02321028D01*
X02157770Y02321293D01*
X02157278Y02321569D01*
X02156791Y02321858D01*
X02156313Y02322158D01*
X02155841Y02322470D01*
X02155378Y02322793D01*
X02154922Y02323128D01*
X02154475Y02323473D01*
X02154036Y02323829D01*
X02153606Y02324196D01*
X02153185Y02324573D01*
X02152773Y02324961D01*
X02152371Y02325358D01*
X02151979Y02325765D01*
X02151597Y02326181D01*
X02151225Y02326607D01*
X02150863Y02327041D01*
X02150512Y02327484D01*
X02150172Y02327936D01*
X02149843Y02328395D01*
X02149526Y02328863D01*
X02149220Y02329338D01*
X02148925Y02329821D01*
X02148643Y02330310D01*
X02148372Y02330806D01*
X02148114Y02331309D01*
X02147867Y02331818D01*
X02147634Y02332332D01*
X02147413Y02332853D01*
X02147204Y02333378D01*
X02147009Y02333908D01*
X02146826Y02334443D01*
X02146657Y02334983D01*
X02146501Y02335526D01*
X02146358Y02336073D01*
X02146228Y02336623D01*
X02146112Y02337176D01*
X02146009Y02337732D01*
X02145920Y02338290D01*
X02145845Y02338850D01*
X02145783Y02339412D01*
X02145735Y02339975D01*
X02145701Y02340539D01*
X02145680Y02341104D01*
X02145673Y02341669D01*
X02116028Y02337028D02*
X02092819Y02318461D01*
D12*
X02061811Y02070094D02*
X02061811Y02018094D01*
X02161811Y02018094D02*
X02161811Y02070094D01*
X02261811Y02070094D02*
X02261811Y02018094D01*
X02361811Y02018094D02*
X02361811Y02070094D01*
X02461811Y02070094D02*
X02461811Y02018094D01*
X02561811Y02018094D02*
X02561811Y02070094D01*
X02661811Y02070094D02*
X02661811Y02018094D01*
X02761811Y02018094D02*
X02761811Y02070094D01*
X02861811Y02070094D02*
X02861811Y02018094D01*
X02861811Y02618094D02*
X02861811Y02670094D01*
X02761811Y02670094D02*
X02761811Y02618094D01*
X02661811Y02618094D02*
X02661811Y02670094D01*
X02561811Y02670094D02*
X02561811Y02618094D01*
X02461811Y02618094D02*
X02461811Y02670094D01*
X02361811Y02670094D02*
X02361811Y02618094D01*
X02261811Y02618094D02*
X02261811Y02670094D01*
X02161811Y02670094D02*
X02161811Y02618094D01*
X02061811Y02618094D02*
X02061811Y02670094D01*
X01961811Y02670094D02*
X01961811Y02618094D01*
X01861811Y02618094D02*
X01861811Y02670094D01*
X01761811Y02670094D02*
X01761811Y02618094D01*
X01661811Y02618094D02*
X01661811Y02670094D01*
X01561811Y02670094D02*
X01561811Y02618094D01*
X01461811Y02618094D02*
X01461811Y02670094D01*
X01361811Y02670094D02*
X01361811Y02618094D01*
X01261811Y02618094D02*
X01261811Y02670094D01*
X01161811Y02670094D02*
X01161811Y02618094D01*
X01061811Y02618094D02*
X01061811Y02670094D01*
X00961811Y02670094D02*
X00961811Y02618094D01*
X00961811Y02070094D02*
X00961811Y02018094D01*
X01061811Y02018094D02*
X01061811Y02070094D01*
X01161811Y02070094D02*
X01161811Y02018094D01*
X01261811Y02018094D02*
X01261811Y02070094D01*
X01361811Y02070094D02*
X01361811Y02018094D01*
X01461811Y02018094D02*
X01461811Y02070094D01*
X01561811Y02070094D02*
X01561811Y02018094D01*
X01661811Y02018094D02*
X01661811Y02070094D01*
X01761811Y02070094D02*
X01761811Y02018094D01*
X01861811Y02018094D02*
X01861811Y02070094D01*
X01961811Y02070094D02*
X01961811Y02018094D01*
D13*
X00762205Y01006299D03*
X00862205Y01006299D03*
X00962205Y01006299D03*
X01062205Y01006299D03*
X01162205Y01006299D03*
X01262205Y01006299D03*
X01362205Y01006299D03*
X01462205Y01006299D03*
X01562205Y01006299D03*
X01662205Y01006299D03*
X01762205Y01006299D03*
X01862205Y01006299D03*
X01962205Y01006299D03*
X02062205Y01006299D03*
X02162205Y01006299D03*
X02262205Y01006299D03*
X02362205Y01006299D03*
X02462205Y01006299D03*
X02562205Y01006299D03*
X02662205Y01006299D03*
X02762205Y01006299D03*
X02862205Y01006299D03*
X02962205Y01006299D03*
X03062205Y01006299D03*
D14*
X00874409Y02251969D03*
X00824409Y02464567D03*
X00624409Y02464567D03*
X00574409Y02251969D03*
X00806299Y02818898D03*
X01206299Y02818898D03*
D15*
X01318898Y02872835D03*
D16*
X01318898Y02772835D03*
D17*
X00962205Y01259843D02*
X00862205Y01259843D01*
X02962205Y01259843D02*
X02962205Y01006299D01*
X03062205Y01006299D02*
X03062205Y01259843D01*
X02962205Y01259843D01*
D18*
X03062205Y01259843D02*
X03070866Y01268504D01*
X03070866Y01791339D01*
X03270717Y01990929D01*
X03270929Y02089827D01*
X03270929Y02834646D01*
X03152819Y02952756D01*
X00669291Y02952756D01*
X00547969Y02831433D01*
X00547969Y02417197D01*
X00618709Y02350394D01*
X00767717Y02350394D01*
X01191514Y02349024D01*
X01295276Y02244094D01*
X02261407Y02244094D01*
X02362399Y02144299D01*
X02361811Y02044094D01*
X02862205Y01681102D02*
X03196850Y02015748D01*
X03196850Y02641732D01*
X03196850Y02803150D01*
X03114173Y02885827D01*
X01562992Y02885827D01*
X01561811Y02884646D01*
X01561811Y02644094D01*
X01562992Y02642913D01*
X01562992Y02547244D01*
X01480315Y02464567D01*
X00824409Y02464567D01*
X00767717Y02350394D02*
X00767717Y02149606D01*
X00917323Y02149606D01*
X00960630Y02106299D01*
X00961811Y02044094D01*
X01318898Y02872835D02*
X01371260Y02885827D01*
X01562992Y02885827D01*
X02861811Y02644094D02*
X02952756Y02641732D01*
X02862205Y01681102D02*
X02862205Y01006299D01*
D19*
X02259843Y01677165D02*
X02259843Y02010630D01*
X02261811Y02044094D01*
X02161811Y02044094D02*
X02161417Y01961811D01*
X02161417Y01677165D01*
X01862205Y01377953D01*
X01862205Y01006299D01*
X01962205Y01006299D02*
X01962205Y01379528D01*
X02259843Y01677165D01*
X02062992Y01681102D02*
X02062992Y01968110D01*
X02061811Y02044094D01*
X01861811Y02044094D02*
X01861811Y01861811D01*
X01662205Y01662205D01*
X01662205Y01006299D01*
X01762205Y01006299D02*
X01762205Y01380315D01*
X02062992Y01681102D01*
X01761811Y01860236D02*
X01562205Y01660630D01*
X01562205Y01006299D01*
X01462205Y01006299D02*
X01462205Y01659055D01*
X01661811Y01858661D01*
X01661811Y02044094D01*
X01761811Y02044094D02*
X01761811Y01860236D01*
X01561811Y01857087D02*
X01362205Y01657480D01*
X01362205Y01006299D01*
X01262205Y01006299D02*
X01262205Y01655906D01*
X01461811Y01855512D01*
X01461811Y02044094D01*
X01561811Y02044094D02*
X01561811Y01857087D01*
X01362205Y01854331D02*
X01362205Y01964961D01*
X01361811Y02044094D01*
X01261811Y02044094D02*
X01161811Y02044094D01*
X01161811Y02184646D01*
X01094488Y02251969D01*
X00874409Y02251969D01*
X00767717Y02149606D02*
X00767717Y01964567D01*
X00889764Y01842520D01*
X01003937Y01842520D01*
X01062992Y01783465D01*
X01062992Y01007087D01*
X01062205Y01006299D01*
X01162205Y01006299D02*
X01162205Y01654331D01*
X01362205Y01854331D01*
X01063055Y01966598D02*
X01061811Y02044094D01*
X01063055Y01966598D02*
X01031559Y01936672D01*
X00909848Y01937008D01*
X00874016Y01972441D01*
X00874016Y02043307D01*
X00762205Y01837008D02*
X00574803Y02043307D01*
X00574803Y02054724D01*
X00574409Y02251969D01*
X00624409Y02464567D02*
X00618110Y02500000D01*
X00618110Y02803150D01*
X00704724Y02889764D01*
X01162992Y02889764D01*
X01206299Y02818898D01*
X01161811Y02750787D01*
X01161811Y02644094D01*
X01261811Y02644094D02*
X01261811Y02682283D01*
X01318898Y02772835D01*
X01061811Y02784646D02*
X01061811Y02644094D01*
X01061811Y02784646D02*
X01027559Y02818898D01*
X00806299Y02818898D01*
X00762205Y01837008D02*
X00762205Y01006299D01*
D20*
X00862205Y01006299D02*
X00862205Y01259843D01*
X00962205Y01259843D02*
X00962205Y01006299D01*
X00962205Y01259843D02*
X00964567Y01259843D01*
D21*
X02062205Y01377165D02*
X02062205Y01006299D01*
X02162205Y01006299D02*
X02162205Y01378740D01*
X02610236Y01826772D01*
X02611231Y02451761D01*
X02543307Y02519685D01*
X02263780Y02519685D01*
X02212598Y02570866D01*
X02212598Y02708661D01*
X02188976Y02732283D01*
X02086614Y02732283D01*
X02062992Y02708661D01*
X02062992Y02661417D01*
X02061811Y02644094D01*
X02161811Y02644094D02*
X02161811Y02539756D01*
X02224409Y02476378D01*
X02448819Y02476378D01*
X02511811Y02413386D01*
X02511811Y01826008D01*
X02062205Y01377165D01*
X02263780Y01377953D02*
X02720472Y01834646D01*
X02767717Y01834646D01*
X03027622Y02094551D01*
X03027622Y02692913D01*
X02992189Y02728346D01*
X02791339Y02728346D01*
X02761811Y02698819D01*
X02761811Y02644094D01*
X02661811Y02644094D02*
X02661811Y02729579D01*
X02694578Y02762346D01*
X03010146Y02762346D01*
X03061559Y02710934D01*
X03061559Y02076468D01*
X02362205Y01381890D01*
X02362205Y01006299D01*
X02462205Y01006299D02*
X02462205Y01378457D01*
X02728346Y01641732D01*
X02729417Y01692913D01*
X03095559Y02058447D01*
X03095559Y02728954D01*
X03028167Y02796346D01*
X02596414Y02796346D01*
X02562272Y02762205D01*
X02561811Y02644094D01*
X02461811Y02644094D02*
X02462272Y02793701D01*
X02498918Y02830346D01*
X03046187Y02830346D01*
X03129559Y02746975D01*
X03129559Y02040427D01*
X02787402Y01696850D01*
X02787402Y01603781D01*
X02562205Y01378584D01*
X02562205Y01006299D01*
X02263780Y01007874D02*
X02263780Y01377953D01*
X02263780Y01007874D02*
X02262205Y01006299D01*
D22*
X00874016Y02043307D03*
X00574803Y02043307D03*
X02952756Y02641732D03*
X03196850Y02641732D03*
M02*
