%
M48
M72
T01C0.03200
T02C0.03201
%
T01
X30465Y212039
X46016Y194559
X56016Y194559
X66016Y194559
X76016Y194559
X86016Y194559
X96016Y194559
X106016Y194559
X116016Y194559
X126016Y194559
X136016Y194559
X146016Y194559
X156016Y194559
X166016Y194559
X176016Y194559
X186016Y194559
X196016Y194559
X206016Y194559
X216016Y194559
X226016Y194559
X236016Y194559
X236016Y134559
X226016Y134559
X216016Y134559
X206016Y134559
X196016Y134559
X186016Y134559
X176016Y134559
X166016Y134559
X156016Y134559
X146016Y134559
X136016Y134559
X126016Y134559
X116016Y134559
X106016Y134559
X96016Y134559
X86016Y134559
X76016Y134559
X66016Y134559
X56016Y134559
X46016Y134559
X37276Y155346
X32276Y176606
X12276Y176606
X7276Y155346
X81724Y207433
X81724Y217433
X70465Y212039
T02
X7315Y134480
X37236Y134480
X245110Y194323
X269520Y194323
M30
